<?xml version="1.0" encoding="utf-8"?>
<!-- Generator: Adobe Illustrator 27.0.0, SVG Export Plug-In . SVG Version: 6.00 Build 0)  -->
<svg version="1.1" id="Layer_1" xmlns="http://www.w3.org/2000/svg" xmlns:xlink="http://www.w3.org/1999/xlink" x="0px" y="0px"
	 viewBox="0 0 700 700" style="enable-background:new 0 0 700 700;" xml:space="preserve">
<style type="text/css">
	.st0{fill:#FFFFFF;}
</style>
<path class="st0" d="M555.5,357L363.3,164.7c-3.5-3.5-8.3-5.5-13.3-5.5s-9.8,2-13.3,5.5L144.5,357c-5.3,5.4-6.9,13.4-4,20.4
	s9.7,11.6,17.3,11.6h35.6v133.1c0,5,2,9.7,5.5,13.3c3.5,3.5,8.3,5.5,13.3,5.5h89.6V407.7h96.6v133.1H488c5,0,9.7-2,13.3-5.5
	c3.5-3.5,5.5-8.3,5.5-13.3V389h35.5c7.6,0,14.4-4.5,17.3-11.5C562.4,370.4,560.9,362.4,555.5,357L555.5,357z"/>
</svg>
